<svg width="143" height="143" viewBox="0 0 143 143" fill="none" xmlns="http://www.w3.org/2000/svg">
<path d="M36.3802 71.4605C36.3822 74.1163 35.3814 76.6732 33.5782 78.6199C31.7749 80.5665 29.302 81.7593 26.6541 81.9597C26.4345 81.9769 26.2296 82.0766 26.0805 82.2386C25.9315 82.4007 25.8493 82.6132 25.8505 82.8336L25.8552 96.9278C25.8555 97.1606 25.9482 97.3839 26.1129 97.5487C26.2777 97.7134 26.501 97.8061 26.7338 97.8064L49.1862 97.8265C50.0145 97.8274 50.8313 97.6352 51.5717 97.2653C52.3127 96.8934 53.1305 96.6994 53.9602 96.6988C54.79 96.6982 55.6088 96.8909 56.3517 97.2616C57.0934 97.6331 57.9109 97.8272 58.7398 97.8287L116.314 97.8869C116.546 97.887 116.77 97.7947 116.934 97.6303C117.098 97.4658 117.191 97.2427 117.191 97.0099L117.178 82.9236C117.179 82.7033 117.096 82.4906 116.947 82.3283C116.798 82.166 116.592 82.0659 116.373 82.0483C113.723 81.8447 111.247 80.6481 109.439 78.698C107.631 76.748 106.626 74.1883 106.623 71.5316C106.621 68.8748 107.622 66.317 109.426 64.3701C111.231 62.4233 113.705 61.2311 116.354 61.0323C116.574 61.0151 116.778 60.9154 116.927 60.7534C117.076 60.5913 117.159 60.3788 117.157 60.1584L117.145 46.0722C117.145 45.8394 117.052 45.6161 116.887 45.4513C116.722 45.2866 116.499 45.1939 116.266 45.1936L58.6845 45.1403C57.8556 45.1403 57.0384 45.333 56.2974 45.7031C55.5563 46.075 54.7385 46.269 53.9088 46.2696C53.0791 46.2703 52.2603 46.0776 51.5174 45.7068C50.7763 45.3355 49.9592 45.1419 49.1309 45.1413L26.6785 45.1211C26.4457 45.1209 26.2225 45.2132 26.0581 45.3777C25.8936 45.5421 25.8013 45.7653 25.8015 45.9981L25.8141 60.0843C25.8133 60.3047 25.8959 60.5173 26.0452 60.6797C26.1945 60.842 26.3996 60.942 26.6193 60.9596C29.2677 61.1608 31.7443 62.3541 33.554 64.301C35.3637 66.2479 36.3731 68.8048 36.3802 71.4605Z" stroke="#DE2121" stroke-width="3" stroke-miterlimit="10"/>
<path d="M42.2794 88.5629L42.2794 93.1232ZM42.2794 76.404L42.2808 79.4437ZM42.2808 64.2437L42.2794 67.2834ZM42.2794 50.5642V55.1245Z" fill="#DE2121"/>
<path d="M42.2794 88.5629L42.2794 93.1232M42.2794 76.404L42.2808 79.4437M42.2808 64.2437L42.2794 67.2834M42.2794 50.5642V55.1245" stroke="#DE2121" stroke-width="2" stroke-miterlimit="10" stroke-linecap="round"/>
<path d="M49.1009 70.0001V59.091H52.4034V61.0938H52.5241C52.7514 60.4309 53.1349 59.9077 53.6747 59.5242C54.2145 59.1407 54.8584 58.9489 55.6065 58.9489C56.3641 58.9489 57.0128 59.1431 57.5526 59.5313C58.0923 59.9196 58.4356 60.4404 58.5824 61.0938H58.696C58.8996 60.4451 59.2973 59.9267 59.8892 59.5384C60.4811 59.1454 61.1795 58.9489 61.9844 58.9489C63.0166 58.9489 63.8546 59.2804 64.4986 59.9432C65.1425 60.6014 65.4645 61.5057 65.4645 62.6563V70.0001H61.9915V63.4518C61.9915 62.9073 61.8518 62.493 61.5724 62.2089C61.2931 61.92 60.9309 61.7756 60.4858 61.7756C60.0076 61.7756 59.6312 61.9319 59.3565 62.2444C59.0866 62.5521 58.9517 62.9664 58.9517 63.4873V70.0001H55.6136V63.4163C55.6136 62.9096 55.4763 62.5095 55.2017 62.216C54.9271 61.9224 54.5649 61.7756 54.1151 61.7756C53.812 61.7756 53.5445 61.849 53.3125 61.9958C53.0805 62.1378 52.8982 62.3414 52.7656 62.6066C52.6378 62.8717 52.5739 63.1842 52.5739 63.5441V70.0001H49.1009ZM72.5159 70.206C71.3748 70.206 70.39 69.9811 69.5614 69.5313C68.7375 69.0768 68.103 68.4305 67.658 67.5924C67.2176 66.7496 66.9974 65.7482 66.9974 64.5881C66.9974 63.4612 67.22 62.4764 67.6651 61.6336C68.1101 60.786 68.7375 60.1279 69.5472 59.6592C70.3568 59.1857 71.3109 58.9489 72.4094 58.9489C73.1859 58.9489 73.8961 59.0697 74.5401 59.3111C75.184 59.5526 75.7403 59.9101 76.2091 60.3836C76.6778 60.8571 77.0424 61.4418 77.3028 62.1378C77.5633 62.8291 77.6935 63.6222 77.6935 64.5171V65.3836H68.2119V63.3665H74.4619C74.4572 62.9972 74.3696 62.6681 74.1991 62.3793C74.0287 62.0905 73.7943 61.8656 73.496 61.7046C73.2025 61.5389 72.8639 61.456 72.4804 61.456C72.0921 61.456 71.7441 61.5436 71.4364 61.7188C71.1286 61.8893 70.8848 62.1236 70.7048 62.4219C70.5249 62.7155 70.4302 63.0493 70.4207 63.4234V65.4759C70.4207 65.921 70.5083 66.3116 70.6835 66.6478C70.8587 66.9792 71.1073 67.2373 71.4293 67.4219C71.7512 67.6066 72.1348 67.6989 72.5798 67.6989C72.8876 67.6989 73.167 67.6563 73.4179 67.5711C73.6688 67.4859 73.8843 67.3604 74.0642 67.1947C74.2441 67.0289 74.3791 66.8253 74.469 66.5839L77.658 66.6762C77.5254 67.3912 77.2342 68.0138 76.7844 68.5441C76.3393 69.0697 75.7545 69.4792 75.0301 69.7728C74.3057 70.0616 73.4676 70.206 72.5159 70.206ZM86.3056 65.2913V59.091H89.7715V70.0001H86.4619V67.9688H86.3482C86.1067 68.6364 85.6948 69.1667 85.1124 69.5597C84.5348 69.948 83.8364 70.1421 83.0173 70.1421C82.2739 70.1421 81.6205 69.9717 81.057 69.6307C80.4936 69.2898 80.0556 68.814 79.7431 68.2032C79.4306 67.5877 79.272 66.868 79.2673 66.0441V59.091H82.7403V65.3623C82.745 65.9541 82.9013 66.4205 83.209 66.7614C83.5168 67.1023 83.9358 67.2728 84.4661 67.2728C84.8118 67.2728 85.1219 67.197 85.3965 67.0455C85.6759 66.8893 85.896 66.6644 86.057 66.3708C86.2228 66.0725 86.3056 65.7127 86.3056 65.2913ZM55.2585 77.091V79.6478H48.3764V77.091H55.2585ZM49.8182 74.4773H53.2912V84.5697C53.2912 84.7827 53.3243 84.9556 53.3906 85.0881C53.4616 85.216 53.5634 85.3083 53.696 85.3651C53.8286 85.4172 53.9872 85.4432 54.1719 85.4432C54.3045 85.4432 54.4441 85.4314 54.5909 85.4077C54.7424 85.3793 54.8561 85.3556 54.9318 85.3367L55.4574 87.8438C55.2917 87.8912 55.0573 87.9503 54.7543 88.0214C54.456 88.0924 54.0985 88.1374 53.6818 88.1563C52.8674 88.1942 52.169 88.0995 51.5866 87.8722C51.009 87.6402 50.5663 87.2804 50.2585 86.7927C49.9555 86.305 49.8087 85.6918 49.8182 84.9532V74.4773ZM56.8305 88.0001V77.091H60.3036V88.0001H56.8305ZM58.5706 75.8197C58.0829 75.8197 57.6639 75.6587 57.3135 75.3367C56.9631 75.01 56.7879 74.617 56.7879 74.1577C56.7879 73.7032 56.9631 73.3149 57.3135 72.993C57.6639 72.6663 58.0829 72.5029 58.5706 72.5029C59.063 72.5029 59.4821 72.6663 59.8277 72.993C60.1781 73.3149 60.3533 73.7032 60.3533 74.1577C60.3533 74.617 60.1781 75.01 59.8277 75.3367C59.4821 75.6587 59.063 75.8197 58.5706 75.8197ZM67.4065 88.206C66.2559 88.206 65.2687 87.9693 64.4448 87.4958C63.6257 87.0223 62.996 86.3642 62.5556 85.5214C62.1153 84.6738 61.8951 83.6937 61.8951 82.581C61.8951 81.4636 62.1153 80.4835 62.5556 79.6407C63.0007 78.7931 63.6328 78.1326 64.4519 77.6592C65.2758 77.1857 66.2583 76.9489 67.3994 76.9489C68.4079 76.9489 69.2862 77.1312 70.0343 77.4958C70.7871 77.8604 71.3743 78.3765 71.7957 79.0441C72.2218 79.707 72.4467 80.4859 72.4704 81.3807H69.2246C69.1584 80.822 68.969 80.3841 68.6565 80.0668C68.3487 79.7496 67.9462 79.591 67.4491 79.591C67.0466 79.591 66.6939 79.7046 66.3908 79.9319C66.0878 80.1544 65.8511 80.4859 65.6806 80.9262C65.5149 81.3618 65.432 81.9016 65.432 82.5455C65.432 83.1895 65.5149 83.734 65.6806 84.179C65.8511 84.6194 66.0878 84.9532 66.3908 85.1805C66.6939 85.403 67.0466 85.5143 67.4491 85.5143C67.771 85.5143 68.0551 85.4456 68.3013 85.3083C68.5523 85.171 68.7583 84.9698 68.9192 84.7046C69.0802 84.4347 69.182 84.108 69.2246 83.7245H72.4704C72.4372 84.6241 72.2123 85.4101 71.7957 86.0824C71.3837 86.7548 70.8037 87.278 70.0556 87.652C69.3122 88.0214 68.4292 88.206 67.4065 88.206ZM77.1798 85.1378L77.194 80.9972H77.677L80.7452 77.091H84.6798L80.1202 82.6876H79.204L77.1798 85.1378ZM74.0477 88.0001V73.4546H77.5207V88.0001H74.0477ZM80.8233 88.0001L77.9682 83.4688L80.2551 81.0043L84.8361 88.0001H80.8233ZM90.3729 88.206C89.2318 88.206 88.247 87.9811 87.4184 87.5313C86.5945 87.0768 85.9601 86.4305 85.515 85.5924C85.0746 84.7496 84.8545 83.7482 84.8545 82.5881C84.8545 81.4612 85.077 80.4764 85.5221 79.6336C85.9672 78.786 86.5945 78.1279 87.4042 77.6592C88.2139 77.1857 89.1679 76.9489 90.2664 76.9489C91.0429 76.9489 91.7531 77.0697 92.3971 77.3111C93.041 77.5526 93.5974 77.9101 94.0661 78.3836C94.5349 78.8571 94.8995 79.4418 95.1599 80.1378C95.4203 80.8291 95.5505 81.6222 95.5505 82.5171V83.3836H86.069V81.3665H92.319C92.3142 80.9972 92.2266 80.6681 92.0562 80.3793C91.8857 80.0905 91.6514 79.8656 91.3531 79.7046C91.0595 79.5389 90.721 79.456 90.3374 79.456C89.9492 79.456 89.6012 79.5436 89.2934 79.7188C88.9856 79.8893 88.7418 80.1236 88.5619 80.4219C88.3819 80.7155 88.2872 81.0493 88.2778 81.4234V83.4759C88.2778 83.921 88.3654 84.3116 88.5406 84.6478C88.7157 84.9792 88.9643 85.2373 89.2863 85.4219C89.6083 85.6066 89.9918 85.6989 90.4369 85.6989C90.7446 85.6989 91.024 85.6563 91.2749 85.5711C91.5259 85.4859 91.7413 85.3604 91.9212 85.1947C92.1012 85.0289 92.2361 84.8253 92.3261 84.5839L95.515 84.6762C95.3824 85.3912 95.0912 86.0138 94.6414 86.5441C94.1963 87.0697 93.6116 87.4792 92.8871 87.7728C92.1627 88.0616 91.3246 88.206 90.3729 88.206ZM103.282 77.091V79.6478H96.3999V77.091H103.282ZM97.8416 74.4773H101.315V84.5697C101.315 84.7827 101.348 84.9556 101.414 85.0881C101.485 85.216 101.587 85.3083 101.719 85.3651C101.852 85.4172 102.011 85.4432 102.195 85.4432C102.328 85.4432 102.468 85.4314 102.614 85.4077C102.766 85.3793 102.879 85.3556 102.955 85.3367L103.481 87.8438C103.315 87.8912 103.081 87.9503 102.778 88.0214C102.479 88.0924 102.122 88.1374 101.705 88.1563C100.891 88.1942 100.192 88.0995 99.6101 87.8722C99.0324 87.6402 98.5897 87.2804 98.282 86.7927C97.9789 86.305 97.8321 85.6918 97.8416 84.9532V74.4773Z" fill="#DE2121"/>
</svg>
